<svg width="220" height="180" viewBox="0 0 220 180" fill="none" xmlns="http://www.w3.org/2000/svg">
<rect width="220" height="180" fill="white"/>
<path d="M162 43.9375C165.333 43.9375 168.25 44.1458 170.75 44.5625C173.25 44.9792 175.521 45.4583 177.562 46C179.646 46.5 181.583 46.9583 183.375 47.375C185.167 47.7917 187.021 48 188.938 48C192.896 48 196.646 46.1667 200.188 42.5C201.188 41.4583 202.042 40.4167 202.75 39.375C203.5 38.3333 204.167 37.4167 204.75 36.625C205.333 35.7917 205.875 35.125 206.375 34.625C206.917 34.0833 207.458 33.8125 208 33.8125C208.917 33.8125 209.375 34.3125 209.375 35.3125C209.375 35.9375 208.938 36.9375 208.062 38.3125C207.188 39.6875 206.146 41.25 204.938 43C203.729 44.75 202.479 46.5625 201.188 48.4375C199.938 50.3125 198.917 52.0417 198.125 53.625C197.333 55.25 196.646 56.7083 196.062 58C195.521 59.2917 195 60.5833 194.5 61.875C194 63.125 193.5 64.4375 193 65.8125C192.5 67.1458 191.938 68.6875 191.312 70.4375C190.812 71.8958 190.271 73.0625 189.688 73.9375C189.104 74.8125 188.417 75.25 187.625 75.25C186.625 75.25 186.125 74.4167 186.125 72.75C186.125 72.0833 186.229 71.1042 186.438 69.8125C186.646 68.4792 186.75 67.0208 186.75 65.4375C186.75 59.4375 184.667 54.875 180.5 51.75C176.333 48.5833 170.396 47 162.688 47C160.562 47 158.312 47.2917 155.938 47.875C153.604 48.4583 151.292 49.4167 149 50.75C146.708 52.0417 144.521 53.75 142.438 55.875C140.354 57.9583 138.521 60.5417 136.938 63.625C135.396 66.6667 134.146 70.25 133.188 74.375C132.271 78.4583 131.812 83.1458 131.812 88.4375C131.812 91.5625 132.021 94.5417 132.438 97.375C132.854 100.208 133.438 102.854 134.188 105.312C134.938 107.771 135.812 110 136.812 112C137.812 114 138.917 115.708 140.125 117.125C141.667 118.958 143.312 120.438 145.062 121.562C146.812 122.688 148.562 123.562 150.312 124.188C152.104 124.812 153.833 125.25 155.5 125.5C157.167 125.708 158.708 125.812 160.125 125.812C162.708 125.812 165.021 125.583 167.062 125.125C169.146 124.625 170.979 124 172.562 123.25C174.146 122.458 175.479 121.583 176.562 120.625C177.688 119.625 178.604 118.625 179.312 117.625C179.896 116.833 180.396 115.917 180.812 114.875C181.229 113.833 181.562 112.771 181.812 111.688C182.104 110.562 182.312 109.458 182.438 108.375C182.562 107.25 182.625 106.208 182.625 105.25C182.625 103.625 182.521 102.062 182.312 100.562C182.146 99.0625 181.75 97.75 181.125 96.625C180.542 95.5 179.708 94.6042 178.625 93.9375C177.542 93.2708 176.104 92.9375 174.312 92.9375C171.938 92.9375 169.771 93.1042 167.812 93.4375C165.896 93.7708 163.875 93.9375 161.75 93.9375C160.875 93.9375 160.188 93.7917 159.688 93.5C159.188 93.2083 158.938 92.7708 158.938 92.1875C158.938 91.6458 159.146 91.1667 159.562 90.75C159.979 90.3333 160.896 90.125 162.312 90.125C164.604 90.125 167.562 89.9792 171.188 89.6875C174.854 89.3542 179.229 88.7292 184.312 87.8125C187.104 87.3125 189.5 86.7917 191.5 86.25C193.542 85.7083 195.271 85.2292 196.688 84.8125C198.146 84.3542 199.375 84 200.375 83.75C201.375 83.4583 202.292 83.3125 203.125 83.3125C204.25 83.3125 204.812 83.6667 204.812 84.375C204.812 84.75 204.688 85.0625 204.438 85.3125C204.188 85.5625 203.833 85.8125 203.375 86.0625C202.958 86.2708 202.458 86.5 201.875 86.75C201.292 87 200.688 87.3125 200.062 87.6875C198.771 88.4792 197.792 89.6042 197.125 91.0625C196.5 92.5208 196.188 94.6875 196.188 97.5625C196.188 99.0625 196.25 100.688 196.375 102.438C196.5 104.188 196.625 105.896 196.75 107.562C196.917 109.188 197.083 110.708 197.25 112.125C197.458 113.542 197.625 114.667 197.75 115.5C197.958 116.625 198.125 117.75 198.25 118.875C198.417 119.958 198.5 120.792 198.5 121.375C198.5 121.833 198.417 122.208 198.25 122.5C198.083 122.75 197.833 122.875 197.5 122.875C197 122.875 196.417 122.688 195.75 122.312C195.125 121.938 194.396 121.521 193.562 121.062C192.771 120.562 191.917 120.125 191 119.75C190.083 119.375 189.125 119.188 188.125 119.188C186.833 119.188 185.562 119.458 184.312 120C183.104 120.542 181.812 121.229 180.438 122.062C179.062 122.854 177.542 123.729 175.875 124.688C174.208 125.646 172.25 126.542 170 127.375C167.792 128.167 165.229 128.833 162.312 129.375C159.438 129.917 156.104 130.188 152.312 130.188C146.896 130.188 141.812 129.271 137.062 127.438C132.354 125.646 128.229 123.062 124.688 119.688C121.188 116.312 118.417 112.25 116.375 107.5C114.375 102.75 113.375 97.4375 113.375 91.5625C113.375 86.0625 114.021 81.1042 115.312 76.6875C116.646 72.2708 118.417 68.375 120.625 65C122.833 61.5833 125.354 58.6458 128.188 56.1875C131.021 53.7292 133.979 51.6875 137.062 50.0625C139.396 48.8125 141.708 47.7917 144 47C146.333 46.2083 148.583 45.5833 150.75 45.125C152.917 44.6667 154.938 44.3542 156.812 44.1875C158.729 44.0208 160.458 43.9375 162 43.9375Z" fill="black"/>
<path d="M64.875 27C65.75 27 66.1875 27.2708 66.1875 27.8125C66.1875 28.1458 66.0208 28.4583 65.6875 28.75C65.3542 29 64.5833 29.3542 63.375 29.8125C62.8333 30.0208 62.1458 30.2917 61.3125 30.625C60.4792 30.9167 59.6042 31.2708 58.6875 31.6875C57.7708 32.0625 56.8542 32.4792 55.9375 32.9375C55.0208 33.3542 54.2083 33.7708 53.5 34.1875C52.75 34.6458 52.1667 35.1875 51.75 35.8125C51.375 36.3958 51.1875 37.125 51.1875 38C51.1875 38.8333 51.375 39.9583 51.75 41.375C52.1667 42.7917 52.6875 44.375 53.3125 46.125C53.9792 47.875 54.75 49.75 55.625 51.75C56.5 53.7083 57.3958 55.6667 58.3125 57.625C59.2292 59.5833 60.1458 61.4792 61.0625 63.3125C61.9792 65.1458 62.8333 66.7917 63.625 68.25C64.5417 70.0417 65.5625 71.9792 66.6875 74.0625C67.8542 76.1458 69.0208 78.25 70.1875 80.375C71.3542 82.5 72.5208 84.5625 73.6875 86.5625C74.8542 88.5208 75.9167 90.2708 76.875 91.8125C77.875 93.3125 78.7292 94.5208 79.4375 95.4375C80.1875 96.3542 80.75 96.8125 81.125 96.8125C81.5 96.8125 81.9583 96.3542 82.5 95.4375C83.0833 94.4792 83.7083 93.2917 84.375 91.875C85.0833 90.4167 85.7917 88.8125 86.5 87.0625C87.25 85.2708 87.9375 83.5208 88.5625 81.8125C89.0625 80.4375 89.6042 78.7917 90.1875 76.875C90.8125 74.9167 91.375 72.9375 91.875 70.9375C92.4167 68.9375 92.8542 67.0417 93.1875 65.25C93.5208 63.4583 93.6875 62.0208 93.6875 60.9375C93.6875 59.9792 93.4792 59.2292 93.0625 58.6875C92.6875 58.1042 92.1458 57.6875 91.4375 57.4375C90.7292 57.1458 89.8958 56.9583 88.9375 56.875C87.9792 56.7917 86.9167 56.75 85.75 56.75C84.7917 56.75 83.7917 56.7708 82.75 56.8125C81.75 56.8542 80.7917 56.875 79.875 56.875C78 56.875 77.0625 56.3125 77.0625 55.1875C77.0625 54.6042 77.2917 54.1875 77.75 53.9375C78.2083 53.6875 78.9167 53.5 79.875 53.375C80.4583 53.3333 81.5 53.25 83 53.125C84.5417 53 86.3542 52.7708 88.4375 52.4375C90.5625 52.1042 92.875 51.6042 95.375 50.9375C97.875 50.2708 100.396 49.3333 102.938 48.125C105.938 46.7083 108.458 45.2917 110.5 43.875C112.583 42.4167 114.333 41.1042 115.75 39.9375C117.208 38.7292 118.396 37.75 119.312 37C120.229 36.25 121.042 35.875 121.75 35.875C122.583 35.875 123 36.2917 123 37.125C123 37.7917 122.521 38.6042 121.562 39.5625C120.604 40.5208 119.312 41.7708 117.688 43.3125C116.104 44.8542 114.25 46.7292 112.125 48.9375C110 51.1458 107.75 53.8333 105.375 57C103.958 58.875 102.542 61.1042 101.125 63.6875C99.75 66.2708 98.375 69.0417 97 72C95.625 74.9167 94.25 77.9792 92.875 81.1875C91.5417 84.3542 90.1875 87.4583 88.8125 90.5C86.0625 96.625 83.7917 101.896 82 106.312C80.25 110.688 78.8125 114.292 77.6875 117.125C76.5625 119.958 75.6875 122.062 75.0625 123.438C74.4375 124.771 73.9167 125.438 73.5 125.438C73.125 125.438 72.625 124.979 72 124.062C71.375 123.104 70.6458 121.792 69.8125 120.125C68.9792 118.458 68.0417 116.458 67 114.125C65.9583 111.792 64.8333 109.208 63.625 106.375C63.0417 105.042 62.2292 103.104 61.1875 100.562C60.1458 98.0208 58.9375 95.125 57.5625 91.875C56.2292 88.625 54.7708 85.1667 53.1875 81.5C51.6458 77.7917 50.0417 74.1458 48.375 70.5625C46.7083 66.9375 45.0417 63.4792 43.375 60.1875C41.75 56.8958 40.1875 54.0417 38.6875 51.625C37.0625 49 35.3333 46.75 33.5 44.875C31.7083 42.9583 29.375 41.4792 26.5 40.4375C24.8333 39.8542 23.2292 39.4583 21.6875 39.25C20.1875 39 18.5 38.8125 16.625 38.6875C14.75 38.5625 13.3333 38.3333 12.375 38C11.4583 37.6667 11 37.0833 11 36.25C11 35.4167 11.3958 34.8333 12.1875 34.5C12.9792 34.125 14.25 33.9375 16 33.9375C16.9167 33.9375 17.8125 33.9583 18.6875 34C19.5625 34.0417 20.4583 34.0833 21.375 34.125C22.2917 34.1667 23.25 34.2083 24.25 34.25C25.2917 34.2917 26.4167 34.3125 27.625 34.3125C30.4167 34.3125 33.2083 34.1458 36 33.8125C38.8333 33.4375 41.5417 32.9792 44.125 32.4375C46.75 31.8958 49.2083 31.3125 51.5 30.6875C53.8333 30.0208 55.9167 29.4167 57.75 28.875C59.5833 28.3333 61.1042 27.8958 62.3125 27.5625C63.5625 27.1875 64.4167 27 64.875 27Z" fill="black"/>
<path d="M179.528 138.615C180.153 138.615 180.666 138.706 181.067 138.888C181.468 139.065 181.786 139.294 182.021 139.575C182.255 139.852 182.416 140.159 182.505 140.497C182.599 140.831 182.646 141.154 182.646 141.466C182.646 141.773 182.607 142.086 182.528 142.404C182.45 142.716 182.333 143.01 182.177 143.286C182.026 143.562 181.838 143.812 181.614 144.036C181.396 144.255 181.143 144.422 180.857 144.536L180.536 144.661C180.791 145.427 181.096 146.083 181.45 146.63C181.804 147.177 182.185 147.628 182.591 147.982C183.002 148.336 183.429 148.596 183.872 148.763C184.32 148.93 184.765 149.013 185.208 149.013C185.463 149.013 185.695 148.979 185.903 148.911C186.117 148.844 186.299 148.745 186.45 148.615C186.607 148.479 186.726 148.318 186.81 148.13C186.893 147.937 186.935 147.716 186.935 147.466C186.935 147.279 186.924 147.122 186.903 146.997C186.883 146.872 186.859 146.771 186.833 146.693C186.812 146.609 186.791 146.544 186.771 146.497C186.75 146.45 186.739 146.409 186.739 146.372C186.739 146.346 186.745 146.325 186.755 146.31C186.765 146.289 186.786 146.279 186.817 146.279C186.864 146.279 186.922 146.318 186.989 146.396C187.057 146.469 187.12 146.568 187.177 146.693C187.239 146.818 187.291 146.961 187.333 147.122C187.375 147.279 187.396 147.44 187.396 147.607C187.396 148.003 187.338 148.37 187.224 148.708C187.109 149.047 186.932 149.341 186.692 149.591C186.458 149.841 186.161 150.036 185.802 150.177C185.442 150.318 185.021 150.388 184.536 150.388C183.859 150.388 183.252 150.286 182.716 150.083C182.185 149.885 181.713 149.628 181.302 149.31C180.89 148.992 180.536 148.638 180.239 148.247C179.942 147.852 179.69 147.458 179.482 147.068C179.273 146.672 179.107 146.299 178.982 145.95C178.857 145.602 178.76 145.315 178.692 145.091C178.541 145.112 178.398 145.128 178.263 145.138C178.127 145.143 178 145.146 177.88 145.146C177.734 145.146 177.609 145.143 177.505 145.138C177.406 145.133 177.328 145.125 177.271 145.115C177.281 145.453 177.294 145.812 177.31 146.193C177.33 146.568 177.357 146.93 177.388 147.279C177.419 147.628 177.458 147.943 177.505 148.224C177.552 148.5 177.607 148.711 177.669 148.857C177.778 149.102 177.919 149.294 178.091 149.435C178.263 149.57 178.432 149.677 178.599 149.755C178.765 149.838 178.909 149.904 179.028 149.95C179.148 149.997 179.208 150.047 179.208 150.099C179.208 150.167 179.133 150.2 178.982 150.2C178.815 150.2 178.627 150.174 178.419 150.122C178.211 150.075 177.984 150.023 177.739 149.966C177.5 149.909 177.245 149.854 176.974 149.802C176.703 149.755 176.422 149.732 176.13 149.732C175.849 149.732 175.56 149.742 175.263 149.763C174.966 149.789 174.695 149.802 174.45 149.802C174.112 149.802 173.87 149.779 173.724 149.732C173.578 149.685 173.505 149.607 173.505 149.497C173.505 149.43 173.526 149.375 173.567 149.333C173.609 149.292 173.69 149.271 173.81 149.271C173.945 149.271 174.065 149.273 174.169 149.279C174.278 149.284 174.388 149.286 174.497 149.286C174.752 149.286 174.971 149.268 175.153 149.232C175.341 149.195 175.492 149.122 175.607 149.013C175.721 148.898 175.804 148.74 175.857 148.536C175.914 148.333 175.942 148.065 175.942 147.732C175.942 147.596 175.937 147.372 175.927 147.06C175.916 146.747 175.898 146.385 175.872 145.974C175.846 145.562 175.812 145.122 175.771 144.654C175.734 144.185 175.69 143.727 175.638 143.279C175.586 142.825 175.523 142.404 175.45 142.013C175.377 141.622 175.297 141.299 175.208 141.044C175.114 140.789 175.002 140.588 174.872 140.443C174.742 140.297 174.593 140.185 174.427 140.107C174.265 140.029 174.088 139.977 173.896 139.95C173.708 139.924 173.51 139.901 173.302 139.88C173.213 139.87 173.143 139.852 173.091 139.825C173.039 139.794 173.013 139.742 173.013 139.669C173.013 139.607 173.034 139.555 173.075 139.513C173.117 139.466 173.203 139.437 173.333 139.427C173.479 139.417 173.609 139.411 173.724 139.411C173.838 139.411 173.953 139.411 174.067 139.411C174.224 139.411 174.375 139.411 174.521 139.411C174.666 139.411 174.82 139.409 174.982 139.404C175.148 139.393 175.33 139.38 175.528 139.365C175.732 139.344 175.966 139.318 176.232 139.286C176.575 139.25 176.888 139.195 177.169 139.122C177.455 139.044 177.726 138.969 177.982 138.896C178.242 138.818 178.495 138.753 178.739 138.7C178.989 138.643 179.252 138.615 179.528 138.615ZM177.255 144.708C177.859 144.703 178.377 144.617 178.81 144.45C179.247 144.284 179.607 144.057 179.888 143.771C180.169 143.479 180.375 143.138 180.505 142.747C180.64 142.357 180.708 141.935 180.708 141.482C180.708 140.674 180.56 140.068 180.263 139.661C179.966 139.25 179.544 139.044 178.997 139.044C178.768 139.044 178.565 139.086 178.388 139.169C178.211 139.247 178.054 139.359 177.919 139.505C177.789 139.646 177.682 139.818 177.599 140.021C177.515 140.219 177.453 140.437 177.411 140.677C177.333 141.177 177.284 141.674 177.263 142.169C177.247 142.659 177.239 143.133 177.239 143.591L177.255 144.708Z" fill="black"/>
<path d="M172.091 136.779C172.169 136.779 172.221 136.797 172.247 136.833C172.278 136.87 172.294 136.924 172.294 136.997C172.294 137.091 172.286 137.198 172.271 137.318C172.26 137.437 172.247 137.588 172.232 137.771C172.216 137.948 172.2 138.164 172.185 138.419C172.174 138.669 172.169 138.974 172.169 139.333C172.169 139.401 172.159 139.461 172.138 139.513C172.117 139.565 172.078 139.591 172.021 139.591C171.937 139.591 171.88 139.505 171.849 139.333C171.823 139.224 171.799 139.086 171.778 138.919C171.763 138.747 171.737 138.539 171.7 138.294C171.674 138.096 171.63 137.943 171.567 137.833C171.51 137.724 171.437 137.643 171.349 137.591C171.265 137.539 171.174 137.508 171.075 137.497C170.976 137.487 170.877 137.482 170.778 137.482C170.575 137.482 170.341 137.492 170.075 137.513C169.815 137.529 169.56 137.549 169.31 137.575C169.06 137.596 168.833 137.62 168.63 137.646C168.432 137.672 168.294 137.695 168.216 137.716C168.049 137.758 167.945 137.828 167.903 137.927C167.867 138.021 167.849 138.133 167.849 138.263C167.849 138.378 167.851 138.544 167.857 138.763C167.862 138.977 167.87 139.224 167.88 139.505C167.89 139.781 167.903 140.081 167.919 140.404C167.935 140.721 167.948 141.042 167.958 141.365C167.974 141.687 167.987 142 167.997 142.302C168.013 142.604 168.026 142.875 168.036 143.115C168.151 143.13 168.281 143.146 168.427 143.161C168.578 143.172 168.726 143.177 168.872 143.177C169.044 143.177 169.187 143.167 169.302 143.146C169.422 143.12 169.521 143.086 169.599 143.044C169.682 143.003 169.747 142.953 169.794 142.896C169.841 142.833 169.88 142.766 169.911 142.693C169.942 142.615 169.963 142.539 169.974 142.466C169.989 142.393 170.005 142.31 170.021 142.216C170.036 142.117 170.06 142.052 170.091 142.021C170.122 141.99 170.153 141.974 170.185 141.974C170.258 141.974 170.294 142.039 170.294 142.169C170.294 142.284 170.286 142.424 170.271 142.591C170.26 142.758 170.247 142.932 170.232 143.115C170.216 143.297 170.2 143.482 170.185 143.669C170.174 143.857 170.169 144.029 170.169 144.185C170.169 144.325 170.169 144.466 170.169 144.607C170.174 144.747 170.179 144.878 170.185 144.997C170.19 145.117 170.192 145.224 170.192 145.318C170.198 145.411 170.2 145.482 170.2 145.529C170.2 145.602 170.185 145.672 170.153 145.74C170.127 145.802 170.078 145.833 170.005 145.833C169.885 145.833 169.817 145.727 169.802 145.513C169.797 145.461 169.791 145.388 169.786 145.294C169.786 145.2 169.784 145.102 169.778 144.997C169.773 144.893 169.763 144.789 169.747 144.685C169.737 144.581 169.721 144.492 169.7 144.419C169.674 144.331 169.627 144.245 169.56 144.161C169.492 144.073 169.385 144.005 169.239 143.958C169.177 143.937 169.099 143.919 169.005 143.904C168.916 143.888 168.817 143.875 168.708 143.865C168.604 143.854 168.495 143.846 168.38 143.841C168.271 143.831 168.166 143.823 168.067 143.818C168.083 144.078 168.101 144.401 168.122 144.786C168.148 145.167 168.174 145.57 168.2 145.997C168.232 146.419 168.263 146.846 168.294 147.279C168.325 147.711 168.354 148.107 168.38 148.466C168.406 148.825 168.427 149.13 168.442 149.38C168.463 149.625 168.479 149.776 168.489 149.833C168.51 150.047 168.565 150.203 168.653 150.302C168.742 150.401 168.883 150.463 169.075 150.49C169.284 150.521 169.536 150.536 169.833 150.536C170.229 150.536 170.578 150.516 170.88 150.474C171.182 150.432 171.445 150.359 171.669 150.255C171.893 150.151 172.083 150.01 172.239 149.833C172.396 149.661 172.526 149.443 172.63 149.177C172.687 149.036 172.734 148.898 172.771 148.763C172.812 148.622 172.846 148.497 172.872 148.388C172.903 148.279 172.932 148.19 172.958 148.122C172.984 148.055 173.013 148.021 173.044 148.021C173.086 148.021 173.114 148.07 173.13 148.169C173.151 148.263 173.161 148.375 173.161 148.505C173.161 148.693 173.151 148.901 173.13 149.13C173.114 149.354 173.091 149.575 173.06 149.794C173.028 150.013 172.992 150.216 172.95 150.404C172.914 150.591 172.877 150.737 172.841 150.841C172.773 151.008 172.682 151.122 172.567 151.185C172.453 151.253 172.299 151.286 172.107 151.286C171.94 151.286 171.713 151.271 171.427 151.24C171.14 151.213 170.81 151.18 170.435 151.138C170.065 151.102 169.664 151.062 169.232 151.021C168.804 150.979 168.364 150.945 167.911 150.919C167.562 150.898 167.229 150.883 166.911 150.872C166.599 150.862 166.312 150.854 166.052 150.849C165.791 150.844 165.565 150.841 165.372 150.841C165.179 150.841 165.028 150.841 164.919 150.841C164.773 150.841 164.677 150.82 164.63 150.779C164.588 150.742 164.567 150.693 164.567 150.63C164.567 150.552 164.596 150.497 164.653 150.466C164.711 150.435 164.784 150.419 164.872 150.419C164.929 150.419 165.026 150.424 165.161 150.435C165.302 150.45 165.471 150.458 165.669 150.458C165.737 150.458 165.804 150.456 165.872 150.45C165.945 150.45 166.023 150.445 166.107 150.435C166.294 150.43 166.437 150.396 166.536 150.333C166.64 150.276 166.716 150.206 166.763 150.122C166.81 150.044 166.836 149.961 166.841 149.872C166.851 149.784 166.857 149.706 166.857 149.638C166.846 149.133 166.817 148.594 166.771 148.021C166.729 147.443 166.682 146.88 166.63 146.333C166.583 145.786 166.534 145.284 166.482 144.825C166.435 144.367 166.398 144.003 166.372 143.732C166.357 143.555 166.336 143.344 166.31 143.099C166.284 142.849 166.252 142.583 166.216 142.302C166.185 142.021 166.148 141.734 166.107 141.443C166.07 141.146 166.031 140.859 165.989 140.583C165.953 140.302 165.914 140.042 165.872 139.802C165.836 139.562 165.802 139.359 165.771 139.193C165.729 138.99 165.682 138.815 165.63 138.669C165.583 138.523 165.531 138.396 165.474 138.286C165.416 138.177 165.354 138.083 165.286 138.005C165.224 137.927 165.153 137.859 165.075 137.802C165.018 137.755 164.95 137.711 164.872 137.669C164.794 137.622 164.718 137.578 164.646 137.536C164.578 137.495 164.521 137.456 164.474 137.419C164.427 137.378 164.403 137.333 164.403 137.286C164.403 137.203 164.474 137.161 164.614 137.161C164.687 137.161 164.789 137.172 164.919 137.193C165.049 137.208 165.211 137.227 165.403 137.247C165.601 137.268 165.833 137.289 166.099 137.31C166.37 137.325 166.679 137.333 167.028 137.333C167.299 137.333 167.604 137.32 167.942 137.294C168.281 137.263 168.627 137.229 168.982 137.193C169.341 137.151 169.695 137.107 170.044 137.06C170.393 137.008 170.711 136.963 170.997 136.927C171.284 136.885 171.523 136.852 171.716 136.825C171.914 136.794 172.039 136.779 172.091 136.779Z" fill="black"/>
<path d="M157.028 137.06C157.138 137.06 157.192 137.094 157.192 137.161C157.192 137.203 157.172 137.242 157.13 137.279C157.088 137.31 156.992 137.354 156.841 137.411C156.773 137.437 156.687 137.471 156.583 137.513C156.479 137.549 156.37 137.594 156.255 137.646C156.14 137.693 156.026 137.745 155.911 137.802C155.797 137.854 155.695 137.906 155.607 137.958C155.513 138.016 155.44 138.083 155.388 138.161C155.341 138.234 155.317 138.325 155.317 138.435C155.317 138.539 155.341 138.68 155.388 138.857C155.44 139.034 155.505 139.232 155.583 139.45C155.666 139.669 155.763 139.904 155.872 140.154C155.982 140.398 156.093 140.643 156.208 140.888C156.323 141.133 156.437 141.37 156.552 141.599C156.666 141.828 156.773 142.034 156.872 142.216C156.987 142.44 157.114 142.682 157.255 142.943C157.401 143.203 157.547 143.466 157.692 143.732C157.838 143.997 157.984 144.255 158.13 144.505C158.276 144.75 158.409 144.969 158.528 145.161C158.653 145.349 158.76 145.5 158.849 145.615C158.942 145.729 159.013 145.786 159.06 145.786C159.107 145.786 159.164 145.729 159.232 145.615C159.304 145.495 159.383 145.346 159.466 145.169C159.554 144.987 159.643 144.786 159.732 144.568C159.825 144.344 159.911 144.125 159.989 143.911C160.052 143.74 160.12 143.534 160.192 143.294C160.271 143.049 160.341 142.802 160.403 142.552C160.471 142.302 160.526 142.065 160.567 141.841C160.609 141.617 160.63 141.437 160.63 141.302C160.63 141.182 160.604 141.088 160.552 141.021C160.505 140.948 160.437 140.896 160.349 140.865C160.26 140.828 160.156 140.805 160.036 140.794C159.916 140.784 159.784 140.779 159.638 140.779C159.518 140.779 159.393 140.781 159.263 140.786C159.138 140.792 159.018 140.794 158.903 140.794C158.669 140.794 158.552 140.724 158.552 140.583C158.552 140.51 158.58 140.458 158.638 140.427C158.695 140.396 158.784 140.372 158.903 140.357C158.976 140.352 159.107 140.341 159.294 140.325C159.487 140.31 159.713 140.281 159.974 140.24C160.239 140.198 160.528 140.135 160.841 140.052C161.153 139.969 161.468 139.852 161.786 139.7C162.161 139.523 162.476 139.346 162.732 139.169C162.992 138.987 163.211 138.823 163.388 138.677C163.57 138.526 163.718 138.404 163.833 138.31C163.948 138.216 164.049 138.169 164.138 138.169C164.242 138.169 164.294 138.221 164.294 138.325C164.294 138.409 164.234 138.51 164.114 138.63C163.995 138.75 163.833 138.906 163.63 139.099C163.432 139.292 163.2 139.526 162.935 139.802C162.669 140.078 162.388 140.414 162.091 140.81C161.914 141.044 161.737 141.323 161.56 141.646C161.388 141.969 161.216 142.315 161.044 142.685C160.872 143.049 160.7 143.432 160.528 143.833C160.362 144.229 160.192 144.617 160.021 144.997C159.677 145.763 159.393 146.422 159.169 146.974C158.95 147.521 158.771 147.971 158.63 148.325C158.489 148.68 158.38 148.943 158.302 149.115C158.224 149.281 158.159 149.365 158.107 149.365C158.06 149.365 157.997 149.307 157.919 149.193C157.841 149.073 157.75 148.909 157.646 148.7C157.541 148.492 157.424 148.242 157.294 147.95C157.164 147.659 157.023 147.336 156.872 146.982C156.799 146.815 156.698 146.573 156.567 146.255C156.437 145.937 156.286 145.575 156.114 145.169C155.948 144.763 155.765 144.331 155.567 143.872C155.375 143.409 155.174 142.953 154.966 142.505C154.758 142.052 154.549 141.62 154.341 141.208C154.138 140.797 153.942 140.44 153.755 140.138C153.552 139.81 153.336 139.529 153.107 139.294C152.883 139.055 152.591 138.87 152.232 138.74C152.023 138.667 151.823 138.617 151.63 138.591C151.442 138.56 151.232 138.536 150.997 138.521C150.763 138.505 150.586 138.477 150.466 138.435C150.351 138.393 150.294 138.32 150.294 138.216C150.294 138.112 150.343 138.039 150.442 137.997C150.541 137.95 150.7 137.927 150.919 137.927C151.034 137.927 151.146 137.93 151.255 137.935C151.364 137.94 151.476 137.945 151.591 137.95C151.705 137.956 151.825 137.961 151.95 137.966C152.08 137.971 152.221 137.974 152.372 137.974C152.721 137.974 153.07 137.953 153.419 137.911C153.773 137.865 154.112 137.807 154.435 137.74C154.763 137.672 155.07 137.599 155.357 137.521C155.648 137.437 155.909 137.362 156.138 137.294C156.367 137.227 156.557 137.172 156.708 137.13C156.864 137.083 156.971 137.06 157.028 137.06Z" fill="black"/>
<path d="M145.271 137.411C146.192 137.411 147.031 137.557 147.786 137.849C148.541 138.141 149.187 138.549 149.724 139.075C150.265 139.596 150.682 140.219 150.974 140.943C151.271 141.661 151.419 142.453 151.419 143.318C151.419 143.807 151.367 144.294 151.263 144.779C151.159 145.263 151.002 145.724 150.794 146.161C150.586 146.599 150.32 147.005 149.997 147.38C149.679 147.755 149.304 148.081 148.872 148.357C148.445 148.633 147.958 148.849 147.411 149.005C146.87 149.161 146.268 149.24 145.607 149.24C144.622 149.24 143.758 149.091 143.013 148.794C142.268 148.492 141.646 148.075 141.146 147.544C140.646 147.008 140.268 146.372 140.013 145.638C139.763 144.898 139.638 144.094 139.638 143.224C139.638 142.375 139.776 141.596 140.052 140.888C140.328 140.174 140.713 139.56 141.208 139.044C141.708 138.529 142.302 138.128 142.989 137.841C143.682 137.555 144.442 137.411 145.271 137.411ZM144.95 137.818C144.44 137.818 143.979 137.932 143.567 138.161C143.161 138.391 142.812 138.719 142.521 139.146C142.234 139.568 142.013 140.081 141.857 140.685C141.7 141.284 141.622 141.958 141.622 142.708C141.622 143.141 141.651 143.591 141.708 144.06C141.771 144.529 141.867 144.99 141.997 145.443C142.127 145.896 142.299 146.325 142.513 146.732C142.726 147.138 142.987 147.495 143.294 147.802C143.601 148.109 143.958 148.354 144.364 148.536C144.776 148.719 145.245 148.81 145.771 148.81C146.396 148.81 146.922 148.685 147.349 148.435C147.776 148.18 148.12 147.846 148.38 147.435C148.646 147.023 148.836 146.557 148.95 146.036C149.07 145.51 149.13 144.977 149.13 144.435C149.13 143.982 149.104 143.503 149.052 142.997C149.005 142.492 148.919 141.995 148.794 141.505C148.674 141.016 148.51 140.549 148.302 140.107C148.099 139.659 147.841 139.266 147.528 138.927C147.221 138.588 146.854 138.32 146.427 138.122C146.005 137.919 145.513 137.818 144.95 137.818Z" fill="black"/>
<path d="M132.575 138.615C133.2 138.615 133.713 138.706 134.114 138.888C134.515 139.065 134.833 139.294 135.067 139.575C135.302 139.852 135.463 140.159 135.552 140.497C135.646 140.831 135.692 141.154 135.692 141.466C135.692 141.773 135.653 142.086 135.575 142.404C135.497 142.716 135.38 143.01 135.224 143.286C135.073 143.562 134.885 143.812 134.661 144.036C134.442 144.255 134.19 144.422 133.903 144.536L133.583 144.661C133.838 145.427 134.143 146.083 134.497 146.63C134.851 147.177 135.232 147.628 135.638 147.982C136.049 148.336 136.476 148.596 136.919 148.763C137.367 148.93 137.812 149.013 138.255 149.013C138.51 149.013 138.742 148.979 138.95 148.911C139.164 148.844 139.346 148.745 139.497 148.615C139.653 148.479 139.773 148.318 139.857 148.13C139.94 147.937 139.982 147.716 139.982 147.466C139.982 147.279 139.971 147.122 139.95 146.997C139.929 146.872 139.906 146.771 139.88 146.693C139.859 146.609 139.838 146.544 139.817 146.497C139.797 146.45 139.786 146.409 139.786 146.372C139.786 146.346 139.791 146.325 139.802 146.31C139.812 146.289 139.833 146.279 139.864 146.279C139.911 146.279 139.968 146.318 140.036 146.396C140.104 146.469 140.166 146.568 140.224 146.693C140.286 146.818 140.338 146.961 140.38 147.122C140.422 147.279 140.442 147.44 140.442 147.607C140.442 148.003 140.385 148.37 140.271 148.708C140.156 149.047 139.979 149.341 139.739 149.591C139.505 149.841 139.208 150.036 138.849 150.177C138.489 150.318 138.067 150.388 137.583 150.388C136.906 150.388 136.299 150.286 135.763 150.083C135.232 149.885 134.76 149.628 134.349 149.31C133.937 148.992 133.583 148.638 133.286 148.247C132.989 147.852 132.737 147.458 132.528 147.068C132.32 146.672 132.153 146.299 132.028 145.95C131.903 145.602 131.807 145.315 131.739 145.091C131.588 145.112 131.445 145.128 131.31 145.138C131.174 145.143 131.047 145.146 130.927 145.146C130.781 145.146 130.656 145.143 130.552 145.138C130.453 145.133 130.375 145.125 130.317 145.115C130.328 145.453 130.341 145.812 130.357 146.193C130.377 146.568 130.403 146.93 130.435 147.279C130.466 147.628 130.505 147.943 130.552 148.224C130.599 148.5 130.653 148.711 130.716 148.857C130.825 149.102 130.966 149.294 131.138 149.435C131.31 149.57 131.479 149.677 131.646 149.755C131.812 149.838 131.955 149.904 132.075 149.95C132.195 149.997 132.255 150.047 132.255 150.099C132.255 150.167 132.179 150.2 132.028 150.2C131.862 150.2 131.674 150.174 131.466 150.122C131.258 150.075 131.031 150.023 130.786 149.966C130.547 149.909 130.291 149.854 130.021 149.802C129.75 149.755 129.468 149.732 129.177 149.732C128.896 149.732 128.607 149.742 128.31 149.763C128.013 149.789 127.742 149.802 127.497 149.802C127.159 149.802 126.916 149.779 126.771 149.732C126.625 149.685 126.552 149.607 126.552 149.497C126.552 149.43 126.573 149.375 126.614 149.333C126.656 149.292 126.737 149.271 126.857 149.271C126.992 149.271 127.112 149.273 127.216 149.279C127.325 149.284 127.435 149.286 127.544 149.286C127.799 149.286 128.018 149.268 128.2 149.232C128.388 149.195 128.539 149.122 128.653 149.013C128.768 148.898 128.851 148.74 128.903 148.536C128.961 148.333 128.989 148.065 128.989 147.732C128.989 147.596 128.984 147.372 128.974 147.06C128.963 146.747 128.945 146.385 128.919 145.974C128.893 145.562 128.859 145.122 128.817 144.654C128.781 144.185 128.737 143.727 128.685 143.279C128.633 142.825 128.57 142.404 128.497 142.013C128.424 141.622 128.343 141.299 128.255 141.044C128.161 140.789 128.049 140.588 127.919 140.443C127.789 140.297 127.64 140.185 127.474 140.107C127.312 140.029 127.135 139.977 126.942 139.95C126.755 139.924 126.557 139.901 126.349 139.88C126.26 139.87 126.19 139.852 126.138 139.825C126.086 139.794 126.06 139.742 126.06 139.669C126.06 139.607 126.08 139.555 126.122 139.513C126.164 139.466 126.25 139.437 126.38 139.427C126.526 139.417 126.656 139.411 126.771 139.411C126.885 139.411 127 139.411 127.114 139.411C127.271 139.411 127.422 139.411 127.567 139.411C127.713 139.411 127.867 139.409 128.028 139.404C128.195 139.393 128.377 139.38 128.575 139.365C128.778 139.344 129.013 139.318 129.278 139.286C129.622 139.25 129.935 139.195 130.216 139.122C130.502 139.044 130.773 138.969 131.028 138.896C131.289 138.818 131.541 138.753 131.786 138.7C132.036 138.643 132.299 138.615 132.575 138.615ZM130.302 144.708C130.906 144.703 131.424 144.617 131.857 144.45C132.294 144.284 132.653 144.057 132.935 143.771C133.216 143.479 133.422 143.138 133.552 142.747C133.687 142.357 133.755 141.935 133.755 141.482C133.755 140.674 133.607 140.068 133.31 139.661C133.013 139.25 132.591 139.044 132.044 139.044C131.815 139.044 131.612 139.086 131.435 139.169C131.258 139.247 131.101 139.359 130.966 139.505C130.836 139.646 130.729 139.818 130.646 140.021C130.562 140.219 130.5 140.437 130.458 140.677C130.38 141.177 130.33 141.674 130.31 142.169C130.294 142.659 130.286 143.133 130.286 143.591L130.302 144.708Z" fill="black"/>
<path d="M120.216 139.177C120.633 139.177 120.997 139.203 121.31 139.255C121.622 139.307 121.906 139.367 122.161 139.435C122.422 139.497 122.664 139.555 122.888 139.607C123.112 139.659 123.343 139.685 123.583 139.685C124.078 139.685 124.547 139.456 124.989 138.997C125.114 138.867 125.221 138.737 125.31 138.607C125.403 138.477 125.487 138.362 125.56 138.263C125.633 138.159 125.7 138.075 125.763 138.013C125.83 137.945 125.898 137.911 125.966 137.911C126.08 137.911 126.138 137.974 126.138 138.099C126.138 138.177 126.083 138.302 125.974 138.474C125.864 138.646 125.734 138.841 125.583 139.06C125.432 139.279 125.276 139.505 125.114 139.74C124.958 139.974 124.83 140.19 124.732 140.388C124.633 140.591 124.547 140.773 124.474 140.935C124.406 141.096 124.341 141.258 124.278 141.419C124.216 141.575 124.153 141.74 124.091 141.911C124.028 142.078 123.958 142.271 123.88 142.49C123.817 142.672 123.75 142.818 123.677 142.927C123.604 143.036 123.518 143.091 123.419 143.091C123.294 143.091 123.232 142.987 123.232 142.779C123.232 142.695 123.245 142.573 123.271 142.411C123.297 142.245 123.31 142.062 123.31 141.865C123.31 141.115 123.049 140.544 122.528 140.154C122.008 139.758 121.265 139.56 120.302 139.56C120.036 139.56 119.755 139.596 119.458 139.669C119.166 139.742 118.877 139.862 118.591 140.029C118.304 140.19 118.031 140.404 117.771 140.669C117.51 140.93 117.281 141.253 117.083 141.638C116.89 142.018 116.734 142.466 116.614 142.982C116.5 143.492 116.442 144.078 116.442 144.74C116.442 145.13 116.468 145.503 116.521 145.857C116.573 146.211 116.646 146.542 116.739 146.849C116.833 147.156 116.942 147.435 117.067 147.685C117.192 147.935 117.33 148.148 117.482 148.325C117.674 148.555 117.88 148.74 118.099 148.88C118.317 149.021 118.536 149.13 118.755 149.208C118.979 149.286 119.195 149.341 119.403 149.372C119.612 149.398 119.804 149.411 119.982 149.411C120.304 149.411 120.593 149.383 120.849 149.325C121.109 149.263 121.338 149.185 121.536 149.091C121.734 148.992 121.901 148.883 122.036 148.763C122.177 148.638 122.291 148.513 122.38 148.388C122.453 148.289 122.515 148.174 122.567 148.044C122.62 147.914 122.661 147.781 122.692 147.646C122.729 147.505 122.755 147.367 122.771 147.232C122.786 147.091 122.794 146.961 122.794 146.841C122.794 146.638 122.781 146.443 122.755 146.255C122.734 146.068 122.685 145.904 122.607 145.763C122.534 145.622 122.429 145.51 122.294 145.427C122.159 145.344 121.979 145.302 121.755 145.302C121.458 145.302 121.187 145.323 120.942 145.365C120.703 145.406 120.45 145.427 120.185 145.427C120.075 145.427 119.989 145.409 119.927 145.372C119.864 145.336 119.833 145.281 119.833 145.208C119.833 145.141 119.859 145.081 119.911 145.029C119.963 144.977 120.078 144.95 120.255 144.95C120.541 144.95 120.911 144.932 121.364 144.896C121.823 144.854 122.37 144.776 123.005 144.661C123.354 144.599 123.653 144.534 123.903 144.466C124.159 144.398 124.375 144.338 124.552 144.286C124.734 144.229 124.888 144.185 125.013 144.154C125.138 144.117 125.252 144.099 125.357 144.099C125.497 144.099 125.567 144.143 125.567 144.232C125.567 144.279 125.552 144.318 125.521 144.349C125.489 144.38 125.445 144.411 125.388 144.443C125.336 144.469 125.273 144.497 125.2 144.529C125.127 144.56 125.052 144.599 124.974 144.646C124.812 144.745 124.69 144.885 124.607 145.068C124.528 145.25 124.489 145.521 124.489 145.88C124.489 146.068 124.497 146.271 124.513 146.49C124.528 146.708 124.544 146.922 124.56 147.13C124.58 147.333 124.601 147.523 124.622 147.7C124.648 147.878 124.669 148.018 124.685 148.122C124.711 148.263 124.732 148.404 124.747 148.544C124.768 148.68 124.778 148.784 124.778 148.857C124.778 148.914 124.768 148.961 124.747 148.997C124.726 149.029 124.695 149.044 124.653 149.044C124.591 149.044 124.518 149.021 124.435 148.974C124.357 148.927 124.265 148.875 124.161 148.818C124.062 148.755 123.955 148.7 123.841 148.654C123.726 148.607 123.607 148.583 123.482 148.583C123.32 148.583 123.161 148.617 123.005 148.685C122.854 148.753 122.692 148.838 122.521 148.943C122.349 149.042 122.159 149.151 121.95 149.271C121.742 149.391 121.497 149.503 121.216 149.607C120.94 149.706 120.62 149.789 120.255 149.857C119.896 149.924 119.479 149.958 119.005 149.958C118.328 149.958 117.692 149.844 117.099 149.615C116.51 149.391 115.995 149.068 115.552 148.646C115.114 148.224 114.768 147.716 114.513 147.122C114.263 146.529 114.138 145.865 114.138 145.13C114.138 144.443 114.218 143.823 114.38 143.271C114.547 142.719 114.768 142.232 115.044 141.81C115.32 141.383 115.635 141.016 115.989 140.708C116.343 140.401 116.713 140.146 117.099 139.943C117.39 139.786 117.679 139.659 117.966 139.56C118.258 139.461 118.539 139.383 118.81 139.325C119.08 139.268 119.333 139.229 119.567 139.208C119.807 139.187 120.023 139.177 120.216 139.177Z" fill="black"/>
<path d="M100.646 138.138C100.755 138.18 100.901 138.286 101.083 138.458C101.271 138.625 101.482 138.838 101.716 139.099C101.955 139.359 102.218 139.654 102.505 139.982C102.797 140.31 103.104 140.648 103.427 140.997C103.666 141.258 103.903 141.523 104.138 141.794C104.377 142.06 104.607 142.318 104.825 142.568C105.044 142.818 105.25 143.052 105.442 143.271C105.64 143.49 105.817 143.682 105.974 143.849C106.135 144.01 106.276 144.138 106.396 144.232C106.515 144.325 106.609 144.372 106.677 144.372C106.718 144.372 106.755 144.328 106.786 144.24C106.817 144.151 106.843 144.034 106.864 143.888C106.89 143.742 106.911 143.578 106.927 143.396C106.942 143.213 106.955 143.029 106.966 142.841C106.976 142.654 106.984 142.471 106.989 142.294C106.995 142.117 106.997 141.963 106.997 141.833C106.997 141.656 106.992 141.458 106.982 141.24C106.976 141.021 106.966 140.81 106.95 140.607C106.935 140.398 106.911 140.211 106.88 140.044C106.854 139.872 106.82 139.742 106.778 139.654C106.716 139.529 106.646 139.424 106.567 139.341C106.489 139.258 106.393 139.19 106.278 139.138C106.164 139.081 106.026 139.036 105.864 139.005C105.703 138.974 105.505 138.945 105.271 138.919C105.12 138.904 105.015 138.878 104.958 138.841C104.901 138.805 104.872 138.75 104.872 138.677C104.872 138.604 104.901 138.557 104.958 138.536C105.015 138.516 105.078 138.505 105.146 138.505C105.198 138.505 105.276 138.51 105.38 138.521C105.489 138.526 105.617 138.534 105.763 138.544C105.909 138.549 106.065 138.555 106.232 138.56C106.403 138.565 106.578 138.568 106.755 138.568C107.041 138.568 107.325 138.547 107.607 138.505C107.888 138.463 108.151 138.419 108.396 138.372C108.64 138.32 108.859 138.273 109.052 138.232C109.245 138.19 109.393 138.169 109.497 138.169C109.653 138.169 109.732 138.232 109.732 138.357C109.732 138.44 109.698 138.5 109.63 138.536C109.567 138.573 109.5 138.599 109.427 138.615C109.333 138.635 109.247 138.654 109.169 138.669C109.091 138.68 109.015 138.693 108.942 138.708C108.87 138.724 108.794 138.745 108.716 138.771C108.638 138.792 108.552 138.82 108.458 138.857C108.38 138.883 108.302 138.922 108.224 138.974C108.151 139.026 108.08 139.096 108.013 139.185C107.945 139.268 107.883 139.375 107.825 139.505C107.773 139.63 107.732 139.781 107.7 139.958C107.669 140.146 107.64 140.409 107.614 140.747C107.593 141.081 107.573 141.456 107.552 141.872C107.531 142.284 107.513 142.719 107.497 143.177C107.487 143.63 107.474 144.07 107.458 144.497C107.448 144.919 107.437 145.312 107.427 145.677C107.422 146.036 107.416 146.328 107.411 146.552C107.396 147.38 107.37 147.992 107.333 148.388C107.302 148.784 107.25 148.982 107.177 148.982C107.135 148.982 107.054 148.93 106.935 148.825C106.82 148.716 106.682 148.573 106.521 148.396C106.359 148.213 106.179 148.005 105.982 147.771C105.784 147.531 105.58 147.284 105.372 147.029C105.164 146.768 104.955 146.505 104.747 146.24C104.539 145.969 104.343 145.716 104.161 145.482C103.979 145.242 103.812 145.026 103.661 144.833C103.515 144.635 103.401 144.477 103.317 144.357C102.297 142.95 101.513 141.888 100.966 141.169C100.424 140.445 100.088 140.083 99.9581 140.083C99.932 140.083 99.9112 140.161 99.8956 140.318C99.8852 140.474 99.8747 140.685 99.8643 140.95C99.8591 141.216 99.8539 141.526 99.8487 141.88C99.8487 142.234 99.8487 142.612 99.8487 143.013C99.8487 143.529 99.8487 144.062 99.8487 144.615C99.8539 145.161 99.8565 145.68 99.8565 146.169C99.8565 146.659 99.8565 147.094 99.8565 147.474C99.8617 147.849 99.8643 148.122 99.8643 148.294C99.8643 148.602 99.8669 148.917 99.8721 149.24C99.8825 149.562 99.8982 149.867 99.919 150.154C99.945 150.445 99.9789 150.708 100.021 150.943C100.062 151.182 100.117 151.367 100.185 151.497C100.278 151.68 100.38 151.833 100.489 151.958C100.599 152.083 100.713 152.19 100.833 152.279C100.958 152.367 101.088 152.44 101.224 152.497C101.359 152.555 101.497 152.604 101.638 152.646C101.758 152.687 101.846 152.724 101.903 152.755C101.961 152.786 101.989 152.831 101.989 152.888C101.989 152.982 101.909 153.029 101.747 153.029C101.653 153.029 101.539 153.013 101.403 152.982C101.268 152.95 101.12 152.911 100.958 152.865C100.802 152.823 100.635 152.776 100.458 152.724C100.281 152.672 100.104 152.625 99.9268 152.583C99.7289 152.536 99.531 152.5 99.3331 152.474C99.1352 152.448 98.9424 152.435 98.7549 152.435C98.6299 152.435 98.4997 152.437 98.3643 152.443C98.2341 152.453 98.1117 152.461 97.9971 152.466C97.8825 152.477 97.7836 152.484 97.7003 152.49C97.6169 152.5 97.5596 152.505 97.5284 152.505C97.4294 152.505 97.3305 152.497 97.2315 152.482C97.1378 152.466 97.0909 152.414 97.0909 152.325C97.0909 152.263 97.1247 152.221 97.1924 152.2C97.2602 152.18 97.3513 152.169 97.4659 152.169C97.6169 152.169 97.7862 152.148 97.9737 152.107C98.1664 152.07 98.3435 152 98.5049 151.896C98.7237 151.75 98.8904 151.555 99.0049 151.31C99.1195 151.07 99.1977 150.763 99.2393 150.388C99.2602 150.211 99.2758 150.026 99.2862 149.833C99.3018 149.646 99.3122 149.437 99.3174 149.208C99.3279 148.974 99.3357 148.708 99.3409 148.411C99.3461 148.115 99.3487 147.771 99.3487 147.38C99.3487 147.213 99.3461 147.036 99.3409 146.849C99.3357 146.656 99.3331 146.456 99.3331 146.247C99.3331 146.107 99.3305 145.911 99.3253 145.661C99.3253 145.406 99.3253 145.117 99.3253 144.794C99.3253 144.471 99.3227 144.125 99.3174 143.755C99.3122 143.38 99.3044 143.005 99.294 142.63C99.2836 142.255 99.2706 141.888 99.2549 141.529C99.2393 141.164 99.2185 140.831 99.1924 140.529C99.1664 140.221 99.1352 139.956 99.0987 139.732C99.0622 139.508 99.018 139.344 98.9659 139.24C98.9086 139.125 98.8305 139.036 98.7315 138.974C98.6325 138.911 98.5154 138.865 98.3799 138.833C98.2445 138.802 98.0909 138.784 97.919 138.779C97.7523 138.768 97.5727 138.76 97.3799 138.755C97.2549 138.755 97.1482 138.74 97.0596 138.708C96.9763 138.672 96.9346 138.599 96.9346 138.49C96.9346 138.406 96.9633 138.346 97.0206 138.31C97.0779 138.268 97.1508 138.247 97.2393 138.247H97.9112C98.2289 138.247 98.6299 138.232 99.1143 138.2C99.3383 138.185 99.5596 138.161 99.7784 138.13C100.002 138.099 100.195 138.083 100.357 138.083C100.414 138.083 100.468 138.088 100.521 138.099C100.573 138.104 100.614 138.117 100.646 138.138Z" fill="black"/>
<path d="M93.1378 136.997C93.2732 136.997 93.3409 137.052 93.3409 137.161C93.3409 137.24 93.3044 137.31 93.2315 137.372C93.1638 137.435 93.0414 137.508 92.8643 137.591C92.7706 137.633 92.6664 137.682 92.5518 137.74C92.4424 137.797 92.3279 137.865 92.2081 137.943C92.0935 138.016 91.9789 138.104 91.8643 138.208C91.7497 138.307 91.6404 138.422 91.5362 138.552C91.4008 138.719 91.2836 138.932 91.1846 139.193C91.0857 139.453 90.9997 139.75 90.9268 140.083C90.8591 140.411 90.807 140.771 90.7706 141.161C90.7393 141.552 90.7237 141.961 90.7237 142.388C90.7237 142.857 90.7393 143.323 90.7706 143.786C90.8018 144.245 90.8539 144.682 90.9268 145.099C91.0049 145.516 91.1065 145.901 91.2315 146.255C91.3565 146.609 91.5102 146.917 91.6924 147.177C91.8799 147.437 92.1013 147.641 92.3565 147.786C92.6117 147.932 92.9086 148.005 93.2471 148.005C93.6794 148.005 94.0492 147.891 94.3565 147.661C94.669 147.432 94.9242 147.138 95.1221 146.779C95.3253 146.419 95.4737 146.021 95.5674 145.583C95.6664 145.146 95.7159 144.716 95.7159 144.294C95.7159 144.185 95.7133 144.039 95.7081 143.857C95.7081 143.669 95.7029 143.463 95.6924 143.24C95.6872 143.016 95.6742 142.784 95.6534 142.544C95.6378 142.305 95.6117 142.073 95.5753 141.849C95.5388 141.625 95.4919 141.422 95.4346 141.24C95.3773 141.052 95.3096 140.904 95.2315 140.794C95.1534 140.685 95.0622 140.586 94.9581 140.497C94.8539 140.409 94.7263 140.328 94.5753 140.255C94.4294 140.182 94.2549 140.12 94.0518 140.068C93.8487 140.016 93.6117 139.969 93.3409 139.927C93.1221 139.896 92.9555 139.859 92.8409 139.818C92.7263 139.771 92.669 139.69 92.669 139.575C92.669 139.477 92.7133 139.409 92.8018 139.372C92.8956 139.336 93.0232 139.318 93.1846 139.318C93.3357 139.318 93.4997 139.328 93.6768 139.349C93.8591 139.37 94.0518 139.393 94.2549 139.419C94.4633 139.44 94.682 139.461 94.9112 139.482C95.1404 139.503 95.3799 139.513 95.6299 139.513C95.8591 139.513 96.0883 139.5 96.3174 139.474C96.5466 139.448 96.7654 139.422 96.9737 139.396C97.1872 139.365 97.3852 139.336 97.5674 139.31C97.7549 139.284 97.9216 139.271 98.0674 139.271C98.2497 139.271 98.3721 139.286 98.4346 139.318C98.4971 139.349 98.5284 139.393 98.5284 139.45C98.5284 139.513 98.4919 139.555 98.419 139.575C98.3461 139.596 98.2497 139.612 98.1299 139.622C98.0049 139.633 97.8695 139.643 97.7237 139.654C97.5831 139.664 97.4424 139.687 97.3018 139.724C97.1612 139.76 97.0284 139.815 96.9034 139.888C96.7836 139.961 96.6846 140.065 96.6065 140.2C96.5023 140.372 96.4268 140.607 96.3799 140.904C96.3383 141.2 96.3096 141.529 96.294 141.888C96.2784 142.247 96.2706 142.622 96.2706 143.013C96.2706 143.398 96.2602 143.768 96.2393 144.122C96.2289 144.331 96.2055 144.596 96.169 144.919C96.1325 145.237 96.07 145.575 95.9815 145.935C95.893 146.289 95.7706 146.646 95.6143 147.005C95.4581 147.359 95.2523 147.68 94.9971 147.966C94.7471 148.253 94.4398 148.487 94.0753 148.669C93.7107 148.846 93.2758 148.935 92.7706 148.935C92.281 148.935 91.8357 148.862 91.4346 148.716C91.0336 148.57 90.6742 148.365 90.3565 148.099C90.0388 147.833 89.7654 147.518 89.5362 147.154C89.307 146.784 89.1195 146.38 88.9737 145.943C88.8852 145.677 88.8122 145.38 88.7549 145.052C88.7029 144.719 88.6586 144.37 88.6221 144.005C88.5909 143.641 88.5648 143.266 88.544 142.88C88.5284 142.495 88.518 142.112 88.5128 141.732C88.5023 141.404 88.4867 141.107 88.4659 140.841C88.445 140.575 88.4112 140.341 88.3643 140.138C88.3174 139.935 88.2523 139.766 88.169 139.63C88.0909 139.49 87.9867 139.38 87.8565 139.302C87.7107 139.213 87.5596 139.151 87.4034 139.115C87.2523 139.078 87.057 139.06 86.8174 139.06C86.6143 139.06 86.5128 138.987 86.5128 138.841C86.5128 138.721 86.5987 138.646 86.7706 138.615C86.9997 138.578 87.2289 138.544 87.4581 138.513C87.6924 138.482 87.932 138.448 88.1768 138.411C88.4216 138.375 88.6742 138.336 88.9346 138.294C89.195 138.247 89.4659 138.19 89.7471 138.122C90.2523 137.997 90.695 137.87 91.0753 137.74C91.4555 137.604 91.781 137.482 92.0518 137.372C92.3279 137.263 92.5518 137.174 92.7237 137.107C92.9008 137.034 93.0388 136.997 93.1378 136.997Z" fill="black"/>
<path d="M81.2003 138.615C81.8253 138.615 82.3383 138.706 82.7393 138.888C83.1404 139.065 83.4581 139.294 83.6924 139.575C83.9268 139.852 84.0883 140.159 84.1768 140.497C84.2706 140.831 84.3174 141.154 84.3174 141.466C84.3174 141.773 84.2784 142.086 84.2003 142.404C84.1221 142.716 84.0049 143.01 83.8487 143.286C83.6977 143.562 83.5102 143.812 83.2862 144.036C83.0674 144.255 82.8148 144.422 82.5284 144.536L82.2081 144.661C82.4633 145.427 82.768 146.083 83.1221 146.63C83.4763 147.177 83.8565 147.628 84.2628 147.982C84.6742 148.336 85.1013 148.596 85.544 148.763C85.9919 148.93 86.4372 149.013 86.8799 149.013C87.1352 149.013 87.3669 148.979 87.5753 148.911C87.7888 148.844 87.9711 148.745 88.1221 148.615C88.2784 148.479 88.3982 148.318 88.4815 148.13C88.5648 147.937 88.6065 147.716 88.6065 147.466C88.6065 147.279 88.5961 147.122 88.5753 146.997C88.5544 146.872 88.531 146.771 88.5049 146.693C88.4841 146.609 88.4633 146.544 88.4424 146.497C88.4216 146.45 88.4112 146.409 88.4112 146.372C88.4112 146.346 88.4164 146.325 88.4268 146.31C88.4372 146.289 88.4581 146.279 88.4893 146.279C88.5362 146.279 88.5935 146.318 88.6612 146.396C88.7289 146.469 88.7914 146.568 88.8487 146.693C88.9112 146.818 88.9633 146.961 89.0049 147.122C89.0466 147.279 89.0674 147.44 89.0674 147.607C89.0674 148.003 89.0102 148.37 88.8956 148.708C88.781 149.047 88.6039 149.341 88.3643 149.591C88.1299 149.841 87.8331 150.036 87.4737 150.177C87.1143 150.318 86.6924 150.388 86.2081 150.388C85.531 150.388 84.9242 150.286 84.3878 150.083C83.8565 149.885 83.3852 149.628 82.9737 149.31C82.5622 148.992 82.2081 148.638 81.9112 148.247C81.6143 147.852 81.3617 147.458 81.1534 147.068C80.945 146.672 80.7784 146.299 80.6534 145.95C80.5284 145.602 80.432 145.315 80.3643 145.091C80.2133 145.112 80.07 145.128 79.9346 145.138C79.7992 145.143 79.6716 145.146 79.5518 145.146C79.406 145.146 79.281 145.143 79.1768 145.138C79.0779 145.133 78.9997 145.125 78.9424 145.115C78.9529 145.453 78.9659 145.812 78.9815 146.193C79.0023 146.568 79.0284 146.93 79.0596 147.279C79.0909 147.628 79.1299 147.943 79.1768 148.224C79.2237 148.5 79.2784 148.711 79.3409 148.857C79.4503 149.102 79.5909 149.294 79.7628 149.435C79.9346 149.57 80.1039 149.677 80.2706 149.755C80.4372 149.838 80.5805 149.904 80.7003 149.95C80.82 149.997 80.8799 150.047 80.8799 150.099C80.8799 150.167 80.8044 150.2 80.6534 150.2C80.4867 150.2 80.2992 150.174 80.0909 150.122C79.8825 150.075 79.656 150.023 79.4112 149.966C79.1716 149.909 78.9164 149.854 78.6456 149.802C78.3747 149.755 78.0935 149.732 77.8018 149.732C77.5206 149.732 77.2315 149.742 76.9346 149.763C76.6378 149.789 76.3669 149.802 76.1221 149.802C75.7836 149.802 75.5414 149.779 75.3956 149.732C75.2497 149.685 75.1768 149.607 75.1768 149.497C75.1768 149.43 75.1977 149.375 75.2393 149.333C75.281 149.292 75.3617 149.271 75.4815 149.271C75.6169 149.271 75.7367 149.273 75.8409 149.279C75.9503 149.284 76.0596 149.286 76.169 149.286C76.4242 149.286 76.643 149.268 76.8253 149.232C77.0128 149.195 77.1638 149.122 77.2784 149.013C77.393 148.898 77.4763 148.74 77.5284 148.536C77.5857 148.333 77.6143 148.065 77.6143 147.732C77.6143 147.596 77.6091 147.372 77.5987 147.06C77.5883 146.747 77.57 146.385 77.544 145.974C77.518 145.562 77.4841 145.122 77.4424 144.654C77.406 144.185 77.3617 143.727 77.3096 143.279C77.2575 142.825 77.195 142.404 77.1221 142.013C77.0492 141.622 76.9685 141.299 76.8799 141.044C76.7862 140.789 76.6742 140.588 76.544 140.443C76.4138 140.297 76.2654 140.185 76.0987 140.107C75.9372 140.029 75.7602 139.977 75.5674 139.95C75.3799 139.924 75.182 139.901 74.9737 139.88C74.8852 139.87 74.8148 139.852 74.7628 139.825C74.7107 139.794 74.6846 139.742 74.6846 139.669C74.6846 139.607 74.7055 139.555 74.7471 139.513C74.7888 139.466 74.8747 139.437 75.0049 139.427C75.1508 139.417 75.281 139.411 75.3956 139.411C75.5102 139.411 75.6247 139.411 75.7393 139.411C75.8956 139.411 76.0466 139.411 76.1924 139.411C76.3383 139.411 76.4919 139.409 76.6534 139.404C76.82 139.393 77.0023 139.38 77.2003 139.365C77.4034 139.344 77.6378 139.318 77.9034 139.286C78.2471 139.25 78.5596 139.195 78.8409 139.122C79.1273 139.044 79.3982 138.969 79.6534 138.896C79.9138 138.818 80.1664 138.753 80.4112 138.7C80.6612 138.643 80.9242 138.615 81.2003 138.615ZM78.9268 144.708C79.531 144.703 80.0492 144.617 80.4815 144.45C80.919 144.284 81.2784 144.057 81.5596 143.771C81.8409 143.479 82.0466 143.138 82.1768 142.747C82.3122 142.357 82.3799 141.935 82.3799 141.482C82.3799 140.674 82.2315 140.068 81.9346 139.661C81.6378 139.25 81.2159 139.044 80.669 139.044C80.4398 139.044 80.2367 139.086 80.0596 139.169C79.8825 139.247 79.7263 139.359 79.5909 139.505C79.4607 139.646 79.3539 139.818 79.2706 140.021C79.1872 140.219 79.1247 140.437 79.0831 140.677C79.0049 141.177 78.9555 141.674 78.9346 142.169C78.919 142.659 78.9112 143.133 78.9112 143.591L78.9268 144.708Z" fill="black"/>
<path d="M69.5596 136.49C69.5961 136.49 69.6378 136.534 69.6846 136.622C69.7315 136.711 69.7758 136.815 69.8174 136.935C69.8643 137.049 69.906 137.167 69.9424 137.286C69.9841 137.401 70.0154 137.487 70.0362 137.544C70.1508 137.883 70.2784 138.266 70.419 138.693C70.5596 139.12 70.7081 139.575 70.8643 140.06C71.0258 140.544 71.1924 141.049 71.3643 141.575C71.5414 142.096 71.7159 142.62 71.8878 143.146C72.0648 143.667 72.2393 144.182 72.4112 144.693C72.5831 145.203 72.7471 145.69 72.9034 146.154C73.0596 146.612 73.2055 147.036 73.3409 147.427C73.4815 147.812 73.6065 148.148 73.7159 148.435C73.8409 148.773 73.9633 149.044 74.0831 149.247C74.2029 149.45 74.3305 149.612 74.4659 149.732C74.6013 149.852 74.7497 149.94 74.9112 149.997C75.0779 150.055 75.268 150.107 75.4815 150.154C75.6378 150.185 75.7159 150.242 75.7159 150.325C75.7159 150.383 75.6872 150.422 75.6299 150.443C75.5727 150.463 75.5075 150.474 75.4346 150.474C75.32 150.474 75.1742 150.471 74.9971 150.466C74.82 150.461 74.6169 150.458 74.3878 150.458C74.2055 150.458 74.0075 150.461 73.794 150.466C73.5857 150.477 73.3695 150.49 73.1456 150.505C72.7966 150.531 72.4737 150.573 72.1768 150.63C71.8799 150.693 71.6117 150.753 71.3721 150.81C71.1325 150.872 70.9216 150.927 70.7393 150.974C70.5622 151.021 70.419 151.044 70.3096 151.044C70.2523 151.044 70.2055 151.029 70.169 150.997C70.1378 150.971 70.1221 150.935 70.1221 150.888C70.1221 150.82 70.1404 150.766 70.1768 150.724C70.2133 150.682 70.2836 150.646 70.3878 150.615C70.4294 150.604 70.4893 150.588 70.5674 150.568C70.6456 150.547 70.7315 150.523 70.8253 150.497C70.919 150.471 71.0154 150.44 71.1143 150.404C71.2185 150.372 71.3122 150.336 71.3956 150.294C71.4997 150.237 71.5935 150.161 71.6768 150.068C71.7602 149.974 71.8018 149.831 71.8018 149.638C71.8018 149.596 71.7966 149.539 71.7862 149.466C71.781 149.393 71.7706 149.328 71.7549 149.271C71.6612 148.906 71.5648 148.536 71.4659 148.161C71.3669 147.786 71.268 147.43 71.169 147.091C71.07 146.753 70.9763 146.44 70.8878 146.154C70.7992 145.867 70.7185 145.633 70.6456 145.45C70.5258 145.148 70.3878 144.919 70.2315 144.763C70.0753 144.602 69.9034 144.477 69.7159 144.388C69.6638 144.367 69.5779 144.333 69.4581 144.286C69.3383 144.24 69.195 144.19 69.0284 144.138C68.8669 144.081 68.6924 144.021 68.5049 143.958C68.3174 143.896 68.1325 143.836 67.9503 143.779C67.768 143.716 67.5961 143.661 67.4346 143.615C67.2784 143.562 67.1482 143.518 67.044 143.482C66.919 143.883 66.794 144.281 66.669 144.677C66.5492 145.068 66.4372 145.43 66.3331 145.763C66.2341 146.091 66.1456 146.38 66.0674 146.63C65.9945 146.88 65.9424 147.062 65.9112 147.177C65.8695 147.312 65.8409 147.435 65.8253 147.544C65.8096 147.654 65.8018 147.75 65.8018 147.833C65.8018 147.984 65.8227 148.112 65.8643 148.216C65.9112 148.315 65.9711 148.401 66.044 148.474C66.1169 148.542 66.2003 148.602 66.294 148.654C66.393 148.7 66.4945 148.747 66.5987 148.794C66.6872 148.836 66.7654 148.883 66.8331 148.935C66.9008 148.982 66.9346 149.042 66.9346 149.115C66.9346 149.161 66.9138 149.203 66.8721 149.24C66.8357 149.271 66.7758 149.286 66.6924 149.286C66.6039 149.286 66.4919 149.266 66.3565 149.224C66.2211 149.182 66.07 149.13 65.9034 149.068C65.7419 149.005 65.57 148.94 65.3878 148.872C65.2055 148.799 65.0232 148.734 64.8409 148.677C64.695 148.635 64.544 148.599 64.3878 148.568C64.2315 148.531 64.0805 148.503 63.9346 148.482C63.7888 148.461 63.656 148.445 63.5362 148.435C63.4216 148.419 63.3331 148.409 63.2706 148.404C63.1404 148.393 63.0466 148.375 62.9893 148.349C62.932 148.323 62.9034 148.273 62.9034 148.2C62.9034 148.148 62.919 148.107 62.9503 148.075C62.9867 148.039 63.0466 148.021 63.1299 148.021C63.1612 148.021 63.2159 148.023 63.294 148.029C63.3773 148.034 63.4711 148.036 63.5753 148.036C63.8253 148.036 64.0336 148.021 64.2003 147.99C64.3669 147.958 64.5075 147.909 64.6221 147.841C64.7367 147.773 64.8305 147.69 64.9034 147.591C64.9815 147.487 65.0518 147.365 65.1143 147.224C65.1768 147.088 65.2523 146.909 65.3409 146.685C65.4294 146.456 65.5232 146.208 65.6221 145.943C65.7263 145.672 65.8305 145.393 65.9346 145.107C66.0388 144.815 66.1352 144.542 66.2237 144.286C66.3174 144.026 66.3982 143.797 66.4659 143.599C66.5336 143.396 66.5831 143.245 66.6143 143.146C66.656 143.01 66.7133 142.825 66.7862 142.591C66.8643 142.352 66.9503 142.086 67.044 141.794C67.1378 141.503 67.2315 141.2 67.3253 140.888C67.4242 140.57 67.5128 140.268 67.5909 139.982C67.6742 139.69 67.7393 139.427 67.7862 139.193C67.8383 138.953 67.8643 138.766 67.8643 138.63C67.8643 138.526 67.8357 138.44 67.7784 138.372C67.7211 138.299 67.6273 138.263 67.4971 138.263C67.3825 138.263 67.2523 138.271 67.1065 138.286C66.9659 138.302 66.8227 138.318 66.6768 138.333C66.531 138.349 66.3878 138.365 66.2471 138.38C66.1117 138.396 65.9945 138.404 65.8956 138.404C65.7029 138.404 65.6065 138.336 65.6065 138.2C65.6065 138.075 65.6977 138.005 65.8799 137.99C66.0049 137.984 66.1456 137.971 66.3018 137.95C66.4633 137.93 66.6325 137.901 66.8096 137.865C66.9867 137.828 67.1638 137.784 67.3409 137.732C67.5232 137.674 67.6977 137.607 67.8643 137.529C68.1299 137.409 68.3565 137.286 68.544 137.161C68.7315 137.036 68.8904 136.924 69.0206 136.825C69.156 136.727 69.2654 136.646 69.3487 136.583C69.4372 136.521 69.5075 136.49 69.5596 136.49ZM67.1768 143.06C67.3383 143.117 67.544 143.19 67.794 143.279C68.0492 143.362 68.307 143.445 68.5674 143.529C68.8279 143.607 69.0674 143.674 69.2862 143.732C69.5102 143.789 69.6716 143.818 69.7706 143.818C69.8331 143.818 69.8878 143.797 69.9346 143.755C69.9815 143.708 70.0049 143.638 70.0049 143.544C70.0049 143.466 69.9815 143.325 69.9346 143.122C69.8878 142.914 69.8279 142.68 69.7549 142.419C69.6872 142.154 69.6117 141.878 69.5284 141.591C69.445 141.299 69.3669 141.031 69.294 140.786C69.2211 140.542 69.1586 140.338 69.1065 140.177C69.0596 140.01 69.0336 139.917 69.0284 139.896C69.0075 139.833 68.9789 139.745 68.9424 139.63C68.9112 139.51 68.8747 139.393 68.8331 139.279C68.7966 139.164 68.7575 139.065 68.7159 138.982C68.6794 138.898 68.6508 138.857 68.6299 138.857C68.6091 138.857 68.5805 138.885 68.544 138.943C68.5128 139 68.4789 139.07 68.4424 139.154C68.406 139.232 68.3695 139.318 68.3331 139.411C68.2966 139.505 68.268 139.591 68.2471 139.669L67.1768 143.06Z" fill="black"/>
<path d="M58.0753 137.06C58.1846 137.06 58.2393 137.094 58.2393 137.161C58.2393 137.203 58.2185 137.242 58.1768 137.279C58.1352 137.31 58.0388 137.354 57.8878 137.411C57.82 137.437 57.7341 137.471 57.6299 137.513C57.5258 137.549 57.4164 137.594 57.3018 137.646C57.1872 137.693 57.0727 137.745 56.9581 137.802C56.8435 137.854 56.7419 137.906 56.6534 137.958C56.5596 138.016 56.4867 138.083 56.4346 138.161C56.3878 138.234 56.3643 138.325 56.3643 138.435C56.3643 138.539 56.3878 138.68 56.4346 138.857C56.4867 139.034 56.5518 139.232 56.6299 139.45C56.7133 139.669 56.8096 139.904 56.919 140.154C57.0284 140.398 57.1404 140.643 57.2549 140.888C57.3695 141.133 57.4841 141.37 57.5987 141.599C57.7133 141.828 57.82 142.034 57.919 142.216C58.0336 142.44 58.1612 142.682 58.3018 142.943C58.4477 143.203 58.5935 143.466 58.7393 143.732C58.8852 143.997 59.031 144.255 59.1768 144.505C59.3227 144.75 59.4555 144.969 59.5753 145.161C59.7003 145.349 59.807 145.5 59.8956 145.615C59.9893 145.729 60.0596 145.786 60.1065 145.786C60.1534 145.786 60.2107 145.729 60.2784 145.615C60.3513 145.495 60.4294 145.346 60.5128 145.169C60.6013 144.987 60.6898 144.786 60.7784 144.568C60.8721 144.344 60.9581 144.125 61.0362 143.911C61.0987 143.74 61.1664 143.534 61.2393 143.294C61.3174 143.049 61.3878 142.802 61.4503 142.552C61.518 142.302 61.5727 142.065 61.6143 141.841C61.656 141.617 61.6768 141.437 61.6768 141.302C61.6768 141.182 61.6508 141.088 61.5987 141.021C61.5518 140.948 61.4841 140.896 61.3956 140.865C61.307 140.828 61.2029 140.805 61.0831 140.794C60.9633 140.784 60.8305 140.779 60.6846 140.779C60.5648 140.779 60.4398 140.781 60.3096 140.786C60.1846 140.792 60.0648 140.794 59.9503 140.794C59.7159 140.794 59.5987 140.724 59.5987 140.583C59.5987 140.51 59.6273 140.458 59.6846 140.427C59.7419 140.396 59.8305 140.372 59.9503 140.357C60.0232 140.352 60.1534 140.341 60.3409 140.325C60.5336 140.31 60.7602 140.281 61.0206 140.24C61.2862 140.198 61.5753 140.135 61.8878 140.052C62.2003 139.969 62.5154 139.852 62.8331 139.7C63.2081 139.523 63.5232 139.346 63.7784 139.169C64.0388 138.987 64.2575 138.823 64.4346 138.677C64.6169 138.526 64.7654 138.404 64.8799 138.31C64.9945 138.216 65.0961 138.169 65.1846 138.169C65.2888 138.169 65.3409 138.221 65.3409 138.325C65.3409 138.409 65.281 138.51 65.1612 138.63C65.0414 138.75 64.8799 138.906 64.6768 139.099C64.4789 139.292 64.2471 139.526 63.9815 139.802C63.7159 140.078 63.4346 140.414 63.1378 140.81C62.9607 141.044 62.7836 141.323 62.6065 141.646C62.4346 141.969 62.2628 142.315 62.0909 142.685C61.919 143.049 61.7471 143.432 61.5753 143.833C61.4086 144.229 61.2393 144.617 61.0674 144.997C60.7237 145.763 60.4398 146.422 60.2159 146.974C59.9971 147.521 59.8174 147.971 59.6768 148.325C59.5362 148.68 59.4268 148.943 59.3487 149.115C59.2706 149.281 59.2055 149.365 59.1534 149.365C59.1065 149.365 59.044 149.307 58.9659 149.193C58.8878 149.073 58.7966 148.909 58.6924 148.7C58.5883 148.492 58.4711 148.242 58.3409 147.95C58.2107 147.659 58.07 147.336 57.919 146.982C57.8461 146.815 57.7445 146.573 57.6143 146.255C57.4841 145.937 57.3331 145.575 57.1612 145.169C56.9945 144.763 56.8122 144.331 56.6143 143.872C56.4216 143.409 56.2211 142.953 56.0128 142.505C55.8044 142.052 55.5961 141.62 55.3878 141.208C55.1846 140.797 54.9893 140.44 54.8018 140.138C54.5987 139.81 54.3825 139.529 54.1534 139.294C53.9294 139.055 53.6378 138.87 53.2784 138.74C53.07 138.667 52.8695 138.617 52.6768 138.591C52.4893 138.56 52.2784 138.536 52.044 138.521C51.8096 138.505 51.6325 138.477 51.5128 138.435C51.3982 138.393 51.3409 138.32 51.3409 138.216C51.3409 138.112 51.3904 138.039 51.4893 137.997C51.5883 137.95 51.7471 137.927 51.9659 137.927C52.0805 137.927 52.1924 137.93 52.3018 137.935C52.4112 137.94 52.5232 137.945 52.6378 137.95C52.7523 137.956 52.8721 137.961 52.9971 137.966C53.1273 137.971 53.268 137.974 53.419 137.974C53.768 137.974 54.1169 137.953 54.4659 137.911C54.82 137.865 55.1586 137.807 55.4815 137.74C55.8096 137.672 56.1169 137.599 56.4034 137.521C56.695 137.437 56.9555 137.362 57.1846 137.294C57.4138 137.227 57.6039 137.172 57.7549 137.13C57.9112 137.083 58.018 137.06 58.0753 137.06Z" fill="black"/>
</svg>
